<mxfile host="app.diagrams.net" modified="2024-04-22T10:38:10.955Z" agent="Mozilla/5.0 (Windows NT 10.0; Win64; x64) AppleWebKit/537.36 (KHTML, like Gecko) Chrome/122.0.0.0 Whale/3.25.232.19 Safari/537.36" version="24.2.7" etag="C6p7TIzD5n-SO_PeHvZv" type="github">
  <diagram name="페이지-1" id="Y5o7h2EK0YNZ-jD1c1AA">
    <mxGraphModel>
      <root>
        <mxCell id="0" />
        <mxCell id="1" parent="0" />
      </root>
    </mxGraphModel>
  </diagram>
</mxfile>
